<?xml version="1.0" standalone="no"?>
<!DOCTYPE svg PUBLIC "-//W3C//DTD SVG 20010904//EN"
 "http://www.w3.org/TR/2001/REC-SVG-20010904/DTD/svg10.dtd">
<svg version="1.0" xmlns="http://www.w3.org/2000/svg"
 width="381.000000pt" height="101.000000pt" viewBox="0 0 381.000000 101.000000"
 preserveAspectRatio="xMidYMid meet">
<metadata>
Created by potrace 1.16, written by Peter Selinger 2001-2019
</metadata>
<g transform="translate(0.000000,101.000000) scale(0.100000,-0.100000)"
fill="#4c994c" stroke="none">
<path d="M2070 900 l0 -110 -75 0 -75 0 0 60 0 60 -48 0 -48 0 -21 -57 -20
-58 -71 -3 -71 -3 -65 -197 c-36 -108 -65 -186 -66 -172 0 14 -26 102 -58 195
l-58 170 -82 3 c-45 2 -82 1 -82 -1 0 -3 7 -22 16 -43 l16 -39 -25 27 c-38 41
-83 59 -161 65 -64 5 -144 -7 -208 -32 -11 -5 -16 -1 -15 12 2 14 -6 19 -32
21 -49 5 -115 -24 -151 -65 -17 -19 -33 -34 -34 -32 -2 2 -7 22 -13 44 l-9 40
-57 3 -57 3 0 -276 0 -275 75 0 75 0 0 160 c0 175 6 202 56 235 14 9 53 20 85
22 55 5 59 7 59 32 l1 26 16 -30 c8 -16 16 -31 17 -32 1 -1 31 7 66 18 70 22
133 21 157 -3 7 -8 16 -30 19 -50 l6 -35 -93 -6 c-113 -8 -176 -28 -215 -68
-24 -26 -29 -39 -32 -97 -4 -86 17 -128 78 -159 77 -40 192 -23 244 36 26 28
30 27 45 -14 12 -34 14 -35 67 -35 l55 0 -3 215 c-2 119 0 208 5 198 4 -10 43
-106 86 -213 78 -192 79 -195 65 -230 -26 -61 -57 -84 -117 -86 l-52 -2 -3
-53 c-4 -61 4 -69 68 -69 68 0 117 17 161 57 52 47 54 51 160 331 49 130 95
251 102 267 10 26 13 6 17 -145 6 -206 14 -230 87 -262 39 -17 58 -19 117 -14
39 4 110 6 158 6 l86 -1 4 185 c3 169 5 187 24 213 39 53 128 56 161 6 15 -23
19 -56 21 -215 l4 -188 74 0 74 0 0 173 c0 94 -4 198 -10 230 -16 99 -64 144
-165 154 -63 7 -115 -9 -160 -48 l-33 -29 6 145 5 145 -77 0 -76 0 0 -110z m0
-379 c0 -156 0 -159 -22 -165 -45 -12 -88 -6 -108 14 -18 18 -20 33 -20 165
l0 145 75 0 75 0 0 -159z m-943 -77 c-6 -59 -39 -93 -95 -101 -74 -10 -113 38
-81 98 15 29 65 48 128 49 l54 0 -6 -46z"/>
<path d="M2620 990 c-12 -12 -20 -33 -20 -52 0 -39 7 -51 37 -67 56 -29 123 6
123 65 0 47 -29 74 -80 74 -27 0 -47 -7 -60 -20z"/>
<path d="M10 895 l0 -65 95 0 95 0 0 -295 0 -295 75 0 75 0 0 295 0 295 100 0
100 0 0 65 0 65 -270 0 -270 0 0 -65z"/>
<path d="M3015 785 c-22 -8 -50 -26 -62 -40 -12 -14 -24 -25 -27 -25 -3 0 -9
15 -14 33 -8 31 -10 32 -65 35 l-57 3 0 -276 0 -275 74 0 75 0 3 184 c3 169 5
187 24 213 39 53 128 56 161 6 15 -23 19 -56 21 -215 l4 -188 74 0 74 0 0 78
c1 76 1 76 15 44 38 -87 100 -131 182 -132 55 0 91 14 132 53 l34 32 -6 -69
c-10 -107 -39 -136 -135 -136 -43 0 -143 19 -184 35 -16 6 -18 0 -18 -53 l0
-59 48 -14 c26 -8 92 -14 152 -14 157 0 223 33 267 130 15 35 18 80 21 348 l4
307 -65 0 c-68 0 -77 -6 -77 -53 0 -20 -1 -20 -27 6 -57 53 -148 72 -216 43
-44 -18 -86 -62 -110 -116 l-21 -45 -8 42 c-22 106 -150 161 -273 118z m611
-137 c30 -29 47 -115 38 -188 -9 -73 -44 -110 -104 -110 -23 0 -50 5 -61 10
-71 39 -76 237 -6 296 26 22 38 25 71 21 22 -3 49 -16 62 -29z"/>
<path d="M2600 515 l0 -275 75 0 75 0 0 275 0 275 -75 0 -75 0 0 -275z"/>
</g>
</svg>
